<svg xmlns="http://www.w3.org/2000/svg" width="50" height="50" viewBox="0 0 50 50"><path fill="#FBF1E7" stroke="#fff" stroke-width=".113" stroke-miterlimit="10" d="M14.9 14.6l9.5 7.1c.4.3.8.3 1.2 0l9.4-7.1h-20.1zm0 0l9.5 7.1c.4.3.8.3 1.2 0l9.4-7.1h-20.1zm0 0l9.5 7.1c.4.3.8.3 1.2 0l9.4-7.1h-20.1zm0 0l9.5 7.1c.4.3.8.3 1.2 0l9.4-7.1h-20.1zm0 0l9.5 7.1c.4.3.8.3 1.2 0l9.4-7.1h-20.1zm0 0l9.5 7.1c.4.3.8.3 1.2 0l9.4-7.1h-20.1zm0 0l9.5 7.1c.4.3.8.3 1.2 0l9.4-7.1h-20.1zm12.1 9c-.6.4-1.3.7-2 .7s-1.4-.2-2-.7l-10.6-7.9v16.1c0 .4.4.8.8.8h23.6c.4 0 .8-.4.8-.8v-16.2l-10.6 8zm0 0c-.6.4-1.3.7-2 .7s-1.4-.2-2-.7l-10.6-7.9v16.1c0 .4.4.8.8.8h23.6c.4 0 .8-.4.8-.8v-16.2l-10.6 8zm0 0c-.6.4-1.3.7-2 .7s-1.4-.2-2-.7l-10.6-7.9v16.1c0 .4.4.8.8.8h23.6c.4 0 .8-.4.8-.8v-16.2l-10.6 8zm0 0c-.6.4-1.3.7-2 .7s-1.4-.2-2-.7l-10.6-7.9v16.1c0 .4.4.8.8.8h23.6c.4 0 .8-.4.8-.8v-16.2l-10.6 8zm0 0c-.6.4-1.3.7-2 .7s-1.4-.2-2-.7l-10.6-7.9v16.1c0 .4.4.8.8.8h23.6c.4 0 .8-.4.8-.8v-16.2l-10.6 8zm0 0c-.6.4-1.3.7-2 .7s-1.4-.2-2-.7l-10.6-7.9v16.1c0 .4.4.8.8.8h23.6c.4 0 .8-.4.8-.8v-16.2l-10.6 8zm-2.6-2c.4.3.8.3 1.2 0l9.4-7.1h-20.1.1l9.4 7.1zm15.8-20.5h-30.4c-4 0-7.3 3.3-7.3 7.3v30.4c0 4 3.3 7.3 7.3 7.3h30.4c4 0 7.3-3.3 7.3-7.3v-30.4c0-4-3.3-7.3-7.3-7.3zm-.2 30.7c0 1.8-1.4 3.2-3.2 3.2h-23.6c-1.8 0-3.2-1.4-3.2-3.2v-16.4c0-1 .5-2 1.3-2.6.3-.2.7-.4 1-.5l.4-.1h24.8c.3.1.6.2.9.4.9.6 1.5 1.6 1.5 2.7v16.5zm-15-7.6c-.7 0-1.4-.2-2-.7l-10.6-7.9v16.1c0 .4.4.8.8.8h23.6c.4 0 .8-.4.8-.8v-16.1l-10.6 8c-.6.4-1.3.6-2 .6zm-.6-2.6c.4.3.8.3 1.2 0l9.4-7.1h-20.1.1l9.4 7.1zm2.6 2c-.6.4-1.3.7-2 .7s-1.4-.2-2-.7l-10.6-7.9v16.1c0 .4.4.8.8.8h23.6c.4 0 .8-.4.8-.8v-16.2l-10.6 8zm0 0c-.6.4-1.3.7-2 .7s-1.4-.2-2-.7l-10.6-7.9v16.1c0 .4.4.8.8.8h23.6c.4 0 .8-.4.8-.8v-16.2l-10.6 8zm0 0c-.6.4-1.3.7-2 .7s-1.4-.2-2-.7l-10.6-7.9v16.1c0 .4.4.8.8.8h23.6c.4 0 .8-.4.8-.8v-16.2l-10.6 8zm0 0c-.6.4-1.3.7-2 .7s-1.4-.2-2-.7l-10.6-7.9v16.1c0 .4.4.8.8.8h23.6c.4 0 .8-.4.8-.8v-16.2l-10.6 8zm0 0c-.6.4-1.3.7-2 .7s-1.4-.2-2-.7l-10.6-7.9v16.1c0 .4.4.8.8.8h23.6c.4 0 .8-.4.8-.8v-16.2l-10.6 8z"/></svg>