<svg xmlns="http://www.w3.org/2000/svg" viewBox="0 0 56.5 56.5" enable-background="new 0 0 56.5 56.5"><path fill="#fff" stroke="#fff" stroke-width=".142" stroke-miterlimit="10" d="M15.6 16.9l11.9 8.9c.4.3 1.1.3 1.5 0l11.7-8.8h-25.1zm0 0l11.9 8.9c.4.3 1.1.3 1.5 0l11.7-8.8h-25.1zm0 0l11.9 8.9c.4.3 1.1.3 1.5 0l11.7-8.8h-25.1zm0 0l11.9 8.9c.4.3 1.1.3 1.5 0l11.7-8.8h-25.1zm0 0l11.9 8.9c.4.3 1.1.3 1.5 0l11.7-8.8h-25.1zm0 0l11.9 8.9c.4.3 1.1.3 1.5 0l11.7-8.8h-25.1zm0 0l11.9 8.9c.4.3 1.1.3 1.5 0l11.7-8.8h-25.1zm15.2 11.3c-.7.6-1.6.8-2.5.8-.9 0-1.8-.3-2.5-.8l-13.3-9.9v20.2c0 .6.5 1 1 1h29.6c.6 0 1-.5 1-1v-20.3l-13.3 10zm0 0c-.7.6-1.6.8-2.5.8-.9 0-1.8-.3-2.5-.8l-13.3-9.9v20.2c0 .6.5 1 1 1h29.6c.6 0 1-.5 1-1v-20.3l-13.3 10zm0 0c-.7.6-1.6.8-2.5.8-.9 0-1.8-.3-2.5-.8l-13.3-9.9v20.2c0 .6.5 1 1 1h29.6c.6 0 1-.5 1-1v-20.3l-13.3 10zm0 0c-.7.6-1.6.8-2.5.8-.9 0-1.8-.3-2.5-.8l-13.3-9.9v20.2c0 .6.5 1 1 1h29.6c.6 0 1-.5 1-1v-20.3l-13.3 10zm0 0c-.7.6-1.6.8-2.5.8-.9 0-1.8-.3-2.5-.8l-13.3-9.9v20.2c0 .6.5 1 1 1h29.6c.6 0 1-.5 1-1v-20.3l-13.3 10zm0 0c-.7.6-1.6.8-2.5.8-.9 0-1.8-.3-2.5-.8l-13.3-9.9v20.2c0 .6.5 1 1 1h29.6c.6 0 1-.5 1-1v-20.3l-13.3 10zm-3.3-2.4c.4.3 1.1.3 1.5 0l11.7-8.8h-25.1l.1.1 11.8 8.7zm19.9-25.8h-38.2c-5.1 0-9.2 4.1-9.2 9.2v38.2c0 5 4.1 9.2 9.2 9.2h38.2c5 0 9.1-4.1 9.1-9.2v-38.2c0-5.1-4.1-9.2-9.1-9.2zm-.3 38.5c0 2.2-1.8 4-4 4h-29.7c-2.2 0-4-1.8-4-4v-20.5c0-1.3.6-2.5 1.6-3.2.4-.3.8-.5 1.3-.7l.5-.1h30.8c.1 0 .2 0 .3.1.4.1.8.3 1.2.5 1.2.7 1.9 2 1.9 3.4v20.5zm-18.9-9.4c-.9 0-1.8-.3-2.5-.8l-13.3-9.9v20.2c0 .6.5 1 1 1h29.6c.6 0 1-.5 1-1v-20.4l-13.3 10c-.7.6-1.5.9-2.5.9zm-.7-3.3c.4.3 1.1.3 1.5 0l11.7-8.8h-25.1l.1.1 11.8 8.7zm3.3 2.4c-.7.6-1.6.8-2.5.8-.9 0-1.8-.3-2.5-.8l-13.3-9.9v20.2c0 .6.5 1 1 1h29.6c.6 0 1-.5 1-1v-20.3l-13.3 10zm0 0c-.7.6-1.6.8-2.5.8-.9 0-1.8-.3-2.5-.8l-13.3-9.9v20.2c0 .6.5 1 1 1h29.6c.6 0 1-.5 1-1v-20.3l-13.3 10zm0 0c-.7.6-1.6.8-2.5.8-.9 0-1.8-.3-2.5-.8l-13.3-9.9v20.2c0 .6.5 1 1 1h29.6c.6 0 1-.5 1-1v-20.3l-13.3 10zm0 0c-.7.6-1.6.8-2.5.8-.9 0-1.8-.3-2.5-.8l-13.3-9.9v20.2c0 .6.5 1 1 1h29.6c.6 0 1-.5 1-1v-20.3l-13.3 10zm0 0c-.7.6-1.6.8-2.5.8-.9 0-1.8-.3-2.5-.8l-13.3-9.9v20.2c0 .6.5 1 1 1h29.6c.6 0 1-.5 1-1v-20.3l-13.3 10z"/><path fill="#fff" d="M15.6 16.9l11.9 8.9c.4.3 1.1.3 1.5 0l11.7-8.8h-25.1zm15.2 11.3c-.7.6-1.6.8-2.5.8-.9 0-1.8-.3-2.5-.8l-13.3-9.9v20.2c0 .6.5 1 1 1h29.6c.6 0 1-.5 1-1v-20.3l-13.3 10z"/><g fill="#fff"><path d="M40.8 16.9l-.1.1h-25.1v-.1zM15.6 17m0 0 25.2-.1 0 0"/></g></svg>