<svg xmlns="http://www.w3.org/2000/svg" viewBox="0 0 56.5 56.5" enable-background="new 0 0 56.5 56.5"><path fill="#fff" stroke="#fff" stroke-width=".142" stroke-miterlimit="10" d="M47.3 0h-38.1c-5.1 0-9.2 4.1-9.2 9.2v38.2c0 5 4.1 9.2 9.2 9.2h38.2c5 0 9.2-4.1 9.2-9.2v-38.2c-.1-5.1-4.2-9.2-9.3-9.2zm-27 11.3c.7-.5 1.6-.4 2.2.2l4.4 5.3c.5.7.4 1.6-.2 2.2l-1.8 1.5-6.3-7.7 1.7-1.5zm15.8 33.9c-3.9 4.1-27-23.7-22.9-28l4.6-3.8 6.3 7.7c-1.8 1.5-2 4.2-.5 6l4.7 5.7c1.5 1.8 4.2 2.1 6 .7l6.4 7.9-4.6 3.8zm7.1-5.9l-1.8 1.5-6.3-7.7 1.8-1.5c.7-.5 1.6-.4 2.2.2l4.4 5.3c.5.7.4 1.7-.3 2.2z"/></svg>