<svg xmlns="http://www.w3.org/2000/svg" width="50" height="50" viewBox="0 0 50 50"><path fill="#FBF1E7" stroke="#fff" stroke-width=".108" stroke-miterlimit="10" d="M39.9 2h-29.2c-3.8 0-7 3.1-7 7v29.2c0 3.8 3.1 7 7 7h29.2c3.8 0 7-3.1 7-7v-29.2c0-3.9-3.1-7-7-7zm-20.6 8.6c.5-.4 1.3-.3 1.7.2l3.3 4.1c.4.5.3 1.3-.2 1.7l-1.4 1.1-4.8-5.9 1.4-1.2zm12 25.9c-3 3.1-20.6-18.1-17.5-21.4l3.6-2.9 4.8 5.9c-1.4 1.2-1.5 3.2-.4 4.6l3.6 4.4c1.1 1.4 3.2 1.6 4.6.5l4.9 6-3.6 2.9zm5.5-4.5l-1.4 1.1-4.8-5.9 1.4-1.1c.5-.4 1.3-.3 1.7.2l3.3 4.1c.3.5.3 1.2-.2 1.6z"/></svg>