<svg xmlns="http://www.w3.org/2000/svg" viewBox="0 0 45 46.3" enable-background="new 0 0 45 46.3"><path fill="#FBF1E7" d="M33.2 16.8v.7c0 7-5.3 15-15 15-3 0-5.7-.9-8.1-2.4.4 0 .8.1 1.3.1 2.5 0 4.7-.8 6.5-2.2-2.3-.1-4.2-1.6-4.9-3.7.3.1.7.1 1 .1.5 0 .9-.1 1.4-.2-2.4-.5-4.2-2.6-4.2-5.2v-.1c.7.4 1.5.6 2.4.7-1.4-.9-2.3-2.6-2.3-4.4 0-1 .3-1.9.7-2.6 2.6 3.2 6.5 5.3 10.8 5.5-.1-.4-.1-.8-.1-1.2 0-2.9 2.4-5.3 5.3-5.3 1.5 0 2.9.6 3.8 1.7 1.2-.2 2.3-.7 3.3-1.3-.4 1.2-1.2 2.3-2.3 2.9 1.1-.1 2.1-.4 3-.8-.7 1-1.6 1.9-2.6 2.7zm-10.2-14.8c-11 0-20 9-20 20 0 11.1 9 20 20 20s20-8.9 20-20c0-11-9-20-20-20z"/></svg>